<mxfile host="app.diagrams.net" agent="Mozilla/5.0 (Windows NT 10.0; Win64; x64) AppleWebKit/537.36 (KHTML, like Gecko) Chrome/131.0.0.0 Safari/537.36 Edg/131.0.0.0" version="25.0.3">
  <diagram id="C5RBs43oDa-KdzZeNtuy" name="Page-1">
    <mxGraphModel dx="464" dy="945" grid="1" gridSize="10" guides="1" tooltips="1" connect="1" arrows="1" fold="1" page="1" pageScale="1" pageWidth="827" pageHeight="1169" math="0" shadow="0">
      <root>
        <mxCell id="WIyWlLk6GJQsqaUBKTNV-0" />
        <mxCell id="WIyWlLk6GJQsqaUBKTNV-1" parent="WIyWlLk6GJQsqaUBKTNV-0" />
        <mxCell id="qn3okUwRUSZE87y8_UJs-2" value="" style="edgeStyle=none;curved=1;rounded=0;orthogonalLoop=1;jettySize=auto;html=1;fontSize=12;startSize=8;endSize=8;" edge="1" parent="WIyWlLk6GJQsqaUBKTNV-1" source="qn3okUwRUSZE87y8_UJs-0" target="qn3okUwRUSZE87y8_UJs-1">
          <mxGeometry relative="1" as="geometry" />
        </mxCell>
        <mxCell id="qn3okUwRUSZE87y8_UJs-0" value="WriteDataToFile&lt;div&gt;Начало&lt;/div&gt;" style="strokeWidth=2;html=1;shape=mxgraph.flowchart.terminator;whiteSpace=wrap;" vertex="1" parent="WIyWlLk6GJQsqaUBKTNV-1">
          <mxGeometry x="160" y="40" width="200" height="80" as="geometry" />
        </mxCell>
        <mxCell id="qn3okUwRUSZE87y8_UJs-7" value="" style="edgeStyle=none;curved=1;rounded=0;orthogonalLoop=1;jettySize=auto;html=1;fontSize=12;startSize=8;endSize=8;" edge="1" parent="WIyWlLk6GJQsqaUBKTNV-1" source="qn3okUwRUSZE87y8_UJs-1" target="qn3okUwRUSZE87y8_UJs-6">
          <mxGeometry relative="1" as="geometry" />
        </mxCell>
        <mxCell id="qn3okUwRUSZE87y8_UJs-1" value="filename, data, count, f, i" style="shape=parallelogram;perimeter=parallelogramPerimeter;whiteSpace=wrap;html=1;fixedSize=1;" vertex="1" parent="WIyWlLk6GJQsqaUBKTNV-1">
          <mxGeometry x="160" y="160" width="200" height="80" as="geometry" />
        </mxCell>
        <mxCell id="qn3okUwRUSZE87y8_UJs-3" value="" style="endArrow=none;dashed=1;html=1;rounded=0;fontSize=12;startSize=8;endSize=8;curved=1;exitX=1;exitY=0.5;exitDx=0;exitDy=0;" edge="1" parent="WIyWlLk6GJQsqaUBKTNV-1">
          <mxGeometry width="50" height="50" relative="1" as="geometry">
            <mxPoint x="350" y="200" as="sourcePoint" />
            <mxPoint x="400" y="200" as="targetPoint" />
          </mxGeometry>
        </mxCell>
        <mxCell id="qn3okUwRUSZE87y8_UJs-4" value="" style="strokeWidth=2;html=1;shape=mxgraph.flowchart.annotation_2;align=left;labelPosition=right;pointerEvents=1;" vertex="1" parent="WIyWlLk6GJQsqaUBKTNV-1">
          <mxGeometry x="390" y="150" width="50" height="100" as="geometry" />
        </mxCell>
        <mxCell id="qn3okUwRUSZE87y8_UJs-5" value="&lt;span style=&quot;font-size: 12px;&quot;&gt;filename, data - константы&amp;nbsp;&lt;/span&gt;&lt;div&gt;&lt;span style=&quot;font-size: 12px;&quot;&gt;count - по значению&lt;/span&gt;&lt;/div&gt;&lt;div&gt;&lt;span style=&quot;font-size: 12px;&quot;&gt;&amp;nbsp;f, i - по ссылке&lt;/span&gt;&lt;/div&gt;" style="text;html=1;align=left;verticalAlign=middle;whiteSpace=wrap;rounded=0;fontSize=16;" vertex="1" parent="WIyWlLk6GJQsqaUBKTNV-1">
          <mxGeometry x="414" y="150" width="166" height="100" as="geometry" />
        </mxCell>
        <mxCell id="qn3okUwRUSZE87y8_UJs-11" value="" style="edgeStyle=none;curved=1;rounded=0;orthogonalLoop=1;jettySize=auto;html=1;fontSize=12;startSize=8;endSize=8;" edge="1" parent="WIyWlLk6GJQsqaUBKTNV-1" source="qn3okUwRUSZE87y8_UJs-6" target="qn3okUwRUSZE87y8_UJs-9">
          <mxGeometry relative="1" as="geometry" />
        </mxCell>
        <mxCell id="qn3okUwRUSZE87y8_UJs-6" value="&lt;div&gt;AssignFile(f, filename)&lt;/div&gt;&lt;div&gt;&amp;nbsp; Rewrite(f)&lt;/div&gt;" style="rounded=0;whiteSpace=wrap;html=1;" vertex="1" parent="WIyWlLk6GJQsqaUBKTNV-1">
          <mxGeometry x="160" y="280" width="200" height="80" as="geometry" />
        </mxCell>
        <mxCell id="qn3okUwRUSZE87y8_UJs-13" value="" style="edgeStyle=none;curved=1;rounded=0;orthogonalLoop=1;jettySize=auto;html=1;fontSize=12;startSize=8;endSize=8;" edge="1" parent="WIyWlLk6GJQsqaUBKTNV-1" source="qn3okUwRUSZE87y8_UJs-8" target="qn3okUwRUSZE87y8_UJs-10">
          <mxGeometry relative="1" as="geometry" />
        </mxCell>
        <mxCell id="qn3okUwRUSZE87y8_UJs-8" value="Цикл 1&lt;div&gt;i &amp;gt; count - 1&lt;/div&gt;" style="strokeWidth=2;html=1;shape=mxgraph.flowchart.loop_limit;whiteSpace=wrap;" vertex="1" parent="WIyWlLk6GJQsqaUBKTNV-1">
          <mxGeometry x="160" y="520" width="200" height="80" as="geometry" />
        </mxCell>
        <mxCell id="qn3okUwRUSZE87y8_UJs-12" value="" style="edgeStyle=none;curved=1;rounded=0;orthogonalLoop=1;jettySize=auto;html=1;fontSize=12;startSize=8;endSize=8;" edge="1" parent="WIyWlLk6GJQsqaUBKTNV-1" source="qn3okUwRUSZE87y8_UJs-9" target="qn3okUwRUSZE87y8_UJs-8">
          <mxGeometry relative="1" as="geometry" />
        </mxCell>
        <mxCell id="qn3okUwRUSZE87y8_UJs-9" value="i := 0" style="rounded=0;whiteSpace=wrap;html=1;" vertex="1" parent="WIyWlLk6GJQsqaUBKTNV-1">
          <mxGeometry x="160" y="400" width="200" height="80" as="geometry" />
        </mxCell>
        <mxCell id="qn3okUwRUSZE87y8_UJs-16" value="" style="edgeStyle=none;curved=1;rounded=0;orthogonalLoop=1;jettySize=auto;html=1;fontSize=12;startSize=8;endSize=8;" edge="1" parent="WIyWlLk6GJQsqaUBKTNV-1" source="qn3okUwRUSZE87y8_UJs-10" target="qn3okUwRUSZE87y8_UJs-15">
          <mxGeometry relative="1" as="geometry" />
        </mxCell>
        <mxCell id="qn3okUwRUSZE87y8_UJs-10" value="WriteLn(f, data[i])" style="rounded=0;whiteSpace=wrap;html=1;" vertex="1" parent="WIyWlLk6GJQsqaUBKTNV-1">
          <mxGeometry x="160" y="640" width="200" height="80" as="geometry" />
        </mxCell>
        <mxCell id="qn3okUwRUSZE87y8_UJs-19" value="" style="edgeStyle=none;curved=1;rounded=0;orthogonalLoop=1;jettySize=auto;html=1;fontSize=12;startSize=8;endSize=8;" edge="1" parent="WIyWlLk6GJQsqaUBKTNV-1" source="qn3okUwRUSZE87y8_UJs-14" target="qn3okUwRUSZE87y8_UJs-18">
          <mxGeometry relative="1" as="geometry" />
        </mxCell>
        <mxCell id="qn3okUwRUSZE87y8_UJs-14" value="Цикл 1" style="strokeWidth=2;html=1;shape=mxgraph.flowchart.loop_limit;whiteSpace=wrap;direction=west;" vertex="1" parent="WIyWlLk6GJQsqaUBKTNV-1">
          <mxGeometry x="160" y="880" width="200" height="80" as="geometry" />
        </mxCell>
        <mxCell id="qn3okUwRUSZE87y8_UJs-17" value="" style="edgeStyle=none;curved=1;rounded=0;orthogonalLoop=1;jettySize=auto;html=1;fontSize=12;startSize=8;endSize=8;" edge="1" parent="WIyWlLk6GJQsqaUBKTNV-1" source="qn3okUwRUSZE87y8_UJs-15" target="qn3okUwRUSZE87y8_UJs-14">
          <mxGeometry relative="1" as="geometry" />
        </mxCell>
        <mxCell id="qn3okUwRUSZE87y8_UJs-15" value="i := i + 1" style="rounded=0;whiteSpace=wrap;html=1;" vertex="1" parent="WIyWlLk6GJQsqaUBKTNV-1">
          <mxGeometry x="160" y="760" width="200" height="80" as="geometry" />
        </mxCell>
        <mxCell id="qn3okUwRUSZE87y8_UJs-21" value="" style="edgeStyle=none;curved=1;rounded=0;orthogonalLoop=1;jettySize=auto;html=1;fontSize=12;startSize=8;endSize=8;" edge="1" parent="WIyWlLk6GJQsqaUBKTNV-1" source="qn3okUwRUSZE87y8_UJs-18" target="qn3okUwRUSZE87y8_UJs-20">
          <mxGeometry relative="1" as="geometry" />
        </mxCell>
        <mxCell id="qn3okUwRUSZE87y8_UJs-18" value="CloseFile(f)" style="rounded=0;whiteSpace=wrap;html=1;" vertex="1" parent="WIyWlLk6GJQsqaUBKTNV-1">
          <mxGeometry x="160" y="1000" width="200" height="80" as="geometry" />
        </mxCell>
        <mxCell id="qn3okUwRUSZE87y8_UJs-20" value="WriteDataToFile&lt;div&gt;Конец&lt;/div&gt;" style="strokeWidth=2;html=1;shape=mxgraph.flowchart.terminator;whiteSpace=wrap;" vertex="1" parent="WIyWlLk6GJQsqaUBKTNV-1">
          <mxGeometry x="160" y="1120" width="200" height="80" as="geometry" />
        </mxCell>
      </root>
    </mxGraphModel>
  </diagram>
</mxfile>
